<svg width="140" height="992" viewBox="0 0 140 992" fill="none" xmlns="http://www.w3.org/2000/svg">
<rect width="140" height="992" fill="white"/>
<rect x="30" y="16" width="90" height="70" rx="8" fill="white"/>
<g clip-path="url(#clip0_0_863)">
<path d="M80.8333 33.6667V35.3333H77.5V33.6667H80.8333ZM72.5 33.6667V38.6667H69.1667V33.6667H72.5ZM80.8333 40.3333V45.3333H77.5V40.3333H80.8333ZM72.5 43.6667V45.3333H69.1667V43.6667H72.5ZM82.5 32H75.8333V37H82.5V32ZM74.1667 32H67.5V40.3333H74.1667V32ZM82.5 38.6667H75.8333V47H82.5V38.6667ZM74.1667 42H67.5V47H74.1667V42Z" fill="#1C4980"/>
</g>
<path d="M47.2841 68.5H44.4588V59.7727H47.3736C48.2287 59.7727 48.9631 59.9474 49.5767 60.2969C50.1903 60.6435 50.6605 61.142 50.9872 61.7926C51.3168 62.4403 51.4815 63.2173 51.4815 64.1236C51.4815 65.0327 51.3153 65.8139 50.983 66.4673C50.6534 67.1207 50.1761 67.6236 49.5511 67.9759C48.9261 68.3253 48.1705 68.5 47.2841 68.5ZM45.7756 67.3494H47.2116C47.8764 67.3494 48.429 67.2244 48.8693 66.9744C49.3097 66.7216 49.6392 66.3565 49.858 65.8793C50.0767 65.3991 50.1861 64.8139 50.1861 64.1236C50.1861 63.4389 50.0767 62.858 49.858 62.3807C49.642 61.9034 49.3196 61.5412 48.8906 61.294C48.4616 61.0469 47.929 60.9233 47.2926 60.9233H45.7756V67.3494ZM54.9215 68.6449C54.5067 68.6449 54.1317 68.5682 53.7965 68.4148C53.4613 68.2585 53.1957 68.0327 52.9996 67.7372C52.8065 67.4418 52.7099 67.0795 52.7099 66.6506C52.7099 66.2812 52.7809 65.9773 52.9229 65.7386C53.065 65.5 53.2567 65.3111 53.4982 65.1719C53.7397 65.0327 54.0096 64.9276 54.3079 64.8565C54.6062 64.7855 54.9102 64.7315 55.2198 64.6946C55.6119 64.6491 55.93 64.6122 56.1744 64.5838C56.4187 64.5526 56.5962 64.5028 56.707 64.4347C56.8178 64.3665 56.8732 64.2557 56.8732 64.1023V64.0724C56.8732 63.7003 56.7681 63.4119 56.5579 63.2074C56.3505 63.0028 56.0408 62.9006 55.6289 62.9006C55.1999 62.9006 54.8619 62.9957 54.6147 63.1861C54.3704 63.3736 54.2013 63.5824 54.1076 63.8125L52.9102 63.5398C53.0522 63.142 53.2596 62.821 53.5323 62.5767C53.8079 62.3295 54.1246 62.1506 54.4826 62.0398C54.8406 61.9261 55.217 61.8693 55.6119 61.8693C55.8732 61.8693 56.1502 61.9006 56.4428 61.9631C56.7383 62.0227 57.0138 62.1335 57.2695 62.2955C57.5281 62.4574 57.7397 62.6889 57.9045 62.9901C58.0692 63.2884 58.1516 63.6761 58.1516 64.1534V68.5H56.9073V67.6051H56.8562C56.7738 67.7699 56.6502 67.9318 56.4854 68.0909C56.3207 68.25 56.109 68.3821 55.8505 68.4872C55.592 68.5923 55.2823 68.6449 54.9215 68.6449ZM55.1985 67.6222C55.5508 67.6222 55.8519 67.5526 56.1019 67.4134C56.3548 67.2741 56.5465 67.0923 56.6772 66.8679C56.8107 66.6406 56.8775 66.3977 56.8775 66.1392V65.2955C56.832 65.3409 56.744 65.3835 56.6133 65.4233C56.4854 65.4602 56.3391 65.4929 56.1744 65.5213C56.0096 65.5469 55.8491 65.571 55.6928 65.5938C55.5366 65.6136 55.4059 65.6307 55.3008 65.6449C55.0536 65.6761 54.8278 65.7287 54.6232 65.8026C54.4215 65.8764 54.2596 65.983 54.1374 66.1222C54.0181 66.2585 53.9585 66.4403 53.9585 66.6676C53.9585 66.983 54.0749 67.2216 54.3079 67.3835C54.5408 67.5426 54.8377 67.6222 55.1985 67.6222ZM64.7536 63.5526L63.5987 63.7571C63.5504 63.6094 63.4737 63.4687 63.3686 63.3352C63.2663 63.2017 63.1271 63.0923 62.951 63.0071C62.7749 62.9219 62.5547 62.8793 62.2905 62.8793C61.9297 62.8793 61.6286 62.9602 61.3871 63.1222C61.1456 63.2812 61.0249 63.4872 61.0249 63.7401C61.0249 63.9588 61.1058 64.1349 61.2678 64.2685C61.4297 64.402 61.6911 64.5114 62.0518 64.5966L63.0916 64.8352C63.6939 64.9744 64.1428 65.1889 64.4382 65.4787C64.7337 65.7685 64.8814 66.1449 64.8814 66.608C64.8814 67 64.7678 67.3494 64.5405 67.6562C64.3161 67.9602 64.0021 68.1989 63.5987 68.3722C63.1982 68.5455 62.7337 68.6321 62.2053 68.6321C61.4723 68.6321 60.8743 68.4759 60.4112 68.1634C59.9482 67.848 59.6641 67.4006 59.5589 66.821L60.7905 66.6335C60.8672 66.9545 61.0249 67.1974 61.2635 67.3622C61.5021 67.5241 61.8132 67.6051 62.1967 67.6051C62.6143 67.6051 62.9482 67.5185 63.1982 67.3452C63.4482 67.169 63.5732 66.9545 63.5732 66.7017C63.5732 66.4972 63.4964 66.3253 63.343 66.1861C63.1925 66.0469 62.9609 65.9418 62.6484 65.8707L61.5405 65.6278C60.9297 65.4886 60.478 65.267 60.1854 64.9631C59.8956 64.6591 59.7507 64.2741 59.7507 63.8082C59.7507 63.4219 59.8587 63.0838 60.0746 62.794C60.2905 62.5043 60.5888 62.2784 60.9695 62.1165C61.3501 61.9517 61.7862 61.8693 62.2777 61.8693C62.9851 61.8693 63.5419 62.0227 63.9482 62.3295C64.3544 62.6335 64.6229 63.0412 64.7536 63.5526ZM67.5565 64.6136V68.5H66.2823V59.7727H67.5394V63.0199H67.6204C67.7738 62.6676 68.0082 62.3878 68.3235 62.1804C68.6388 61.973 69.0508 61.8693 69.5593 61.8693C70.0082 61.8693 70.4002 61.9616 70.7354 62.1463C71.0735 62.331 71.3349 62.6065 71.5195 62.973C71.707 63.3366 71.8008 63.7912 71.8008 64.3366V68.5H70.5266V64.4901C70.5266 64.0099 70.4031 63.6378 70.1559 63.3736C69.9087 63.1065 69.565 62.973 69.1246 62.973C68.8235 62.973 68.5536 63.0369 68.315 63.1648C68.0792 63.2926 67.8931 63.4801 67.7567 63.7273C67.6232 63.9716 67.5565 64.267 67.5565 64.6136ZM73.6033 68.5V59.7727H74.8775V63.0156H74.9542C75.0281 62.8793 75.1346 62.7216 75.2738 62.5426C75.413 62.3636 75.6062 62.2074 75.8533 62.0739C76.1005 61.9375 76.4272 61.8693 76.8335 61.8693C77.3619 61.8693 77.8335 62.0028 78.2482 62.2699C78.663 62.5369 78.9883 62.9219 79.2241 63.4247C79.4627 63.9276 79.582 64.5327 79.582 65.2401C79.582 65.9474 79.4641 66.554 79.2283 67.0597C78.9925 67.5625 78.6687 67.9503 78.2567 68.223C77.8448 68.4929 77.3746 68.6278 76.8462 68.6278C76.4485 68.6278 76.1232 68.5611 75.8704 68.4276C75.6204 68.294 75.4244 68.1378 75.2823 67.9588C75.1403 67.7798 75.0309 67.6207 74.9542 67.4815H74.8477V68.5H73.6033ZM74.8519 65.2273C74.8519 65.6875 74.9187 66.0909 75.0522 66.4375C75.1857 66.7841 75.3789 67.0554 75.6317 67.2514C75.8846 67.4446 76.1942 67.5412 76.5607 67.5412C76.9414 67.5412 77.2596 67.4403 77.5153 67.2386C77.771 67.0341 77.9641 66.7571 78.0948 66.4077C78.2283 66.0582 78.2951 65.6648 78.2951 65.2273C78.2951 64.7955 78.2298 64.4077 78.0991 64.0639C77.9712 63.7202 77.7781 63.4489 77.5195 63.25C77.2638 63.0511 76.9442 62.9517 76.5607 62.9517C76.1914 62.9517 75.8789 63.0469 75.6232 63.2372C75.3704 63.4276 75.1786 63.6932 75.0479 64.0341C74.9173 64.375 74.8519 64.7727 74.8519 65.2273ZM83.7699 68.6321C83.1563 68.6321 82.6207 68.4915 82.1634 68.2102C81.706 67.929 81.3509 67.5355 81.098 67.0298C80.8452 66.5241 80.7188 65.9332 80.7188 65.2571C80.7188 64.5781 80.8452 63.9844 81.098 63.4759C81.3509 62.9673 81.706 62.5724 82.1634 62.2912C82.6207 62.0099 83.1563 61.8693 83.7699 61.8693C84.3835 61.8693 84.919 62.0099 85.3764 62.2912C85.8338 62.5724 86.1889 62.9673 86.4418 63.4759C86.6946 63.9844 86.821 64.5781 86.821 65.2571C86.821 65.9332 86.6946 66.5241 86.4418 67.0298C86.1889 67.5355 85.8338 67.929 85.3764 68.2102C84.919 68.4915 84.3835 68.6321 83.7699 68.6321ZM83.7741 67.5625C84.1719 67.5625 84.5014 67.4574 84.7628 67.2472C85.0241 67.0369 85.2173 66.7571 85.3423 66.4077C85.4702 66.0582 85.5341 65.6733 85.5341 65.2528C85.5341 64.8352 85.4702 64.4517 85.3423 64.1023C85.2173 63.75 85.0241 63.4673 84.7628 63.2543C84.5014 63.0412 84.1719 62.9347 83.7741 62.9347C83.3736 62.9347 83.0412 63.0412 82.777 63.2543C82.5156 63.4673 82.321 63.75 82.1932 64.1023C82.0682 64.4517 82.0057 64.8352 82.0057 65.2528C82.0057 65.6733 82.0682 66.0582 82.1932 66.4077C82.321 66.7571 82.5156 67.0369 82.777 67.2472C83.0412 67.4574 83.3736 67.5625 83.7741 67.5625ZM90.1481 68.6449C89.7333 68.6449 89.3583 68.5682 89.0231 68.4148C88.6879 68.2585 88.4222 68.0327 88.2262 67.7372C88.033 67.4418 87.9364 67.0795 87.9364 66.6506C87.9364 66.2812 88.0075 65.9773 88.1495 65.7386C88.2915 65.5 88.4833 65.3111 88.7248 65.1719C88.9663 65.0327 89.2362 64.9276 89.5344 64.8565C89.8327 64.7855 90.1367 64.7315 90.4464 64.6946C90.8384 64.6491 91.1566 64.6122 91.4009 64.5838C91.6452 64.5526 91.8228 64.5028 91.9336 64.4347C92.0444 64.3665 92.0998 64.2557 92.0998 64.1023V64.0724C92.0998 63.7003 91.9947 63.4119 91.7844 63.2074C91.5771 63.0028 91.2674 62.9006 90.8555 62.9006C90.4265 62.9006 90.0884 62.9957 89.8413 63.1861C89.5969 63.3736 89.4279 63.5824 89.3342 63.8125L88.1367 63.5398C88.2788 63.142 88.4862 62.821 88.7589 62.5767C89.0344 62.3295 89.3512 62.1506 89.7092 62.0398C90.0671 61.9261 90.4435 61.8693 90.8384 61.8693C91.0998 61.8693 91.3768 61.9006 91.6694 61.9631C91.9648 62.0227 92.2404 62.1335 92.4961 62.2955C92.7546 62.4574 92.9663 62.6889 93.131 62.9901C93.2958 63.2884 93.3782 63.6761 93.3782 64.1534V68.5H92.1339V67.6051H92.0827C92.0004 67.7699 91.8768 67.9318 91.712 68.0909C91.5472 68.25 91.3356 68.3821 91.0771 68.4872C90.8185 68.5923 90.5089 68.6449 90.1481 68.6449ZM90.4251 67.6222C90.7773 67.6222 91.0785 67.5526 91.3285 67.4134C91.5813 67.2741 91.7731 67.0923 91.9038 66.8679C92.0373 66.6406 92.104 66.3977 92.104 66.1392V65.2955C92.0586 65.3409 91.9705 65.3835 91.8398 65.4233C91.712 65.4602 91.5657 65.4929 91.4009 65.5213C91.2362 65.5469 91.0756 65.571 90.9194 65.5938C90.7631 65.6136 90.6325 65.6307 90.5273 65.6449C90.2802 65.6761 90.0543 65.7287 89.8498 65.8026C89.6481 65.8764 89.4862 65.983 89.364 66.1222C89.2447 66.2585 89.185 66.4403 89.185 66.6676C89.185 66.983 89.3015 67.2216 89.5344 67.3835C89.7674 67.5426 90.0643 67.6222 90.4251 67.6222ZM95.0753 68.5V61.9545H96.3068V62.9943H96.375C96.4943 62.642 96.7045 62.3651 97.0057 62.1634C97.3097 61.9588 97.6534 61.8565 98.0369 61.8565C98.1165 61.8565 98.2102 61.8594 98.3182 61.8651C98.429 61.8707 98.5156 61.8778 98.5781 61.8864V63.1051C98.527 63.0909 98.4361 63.0753 98.3054 63.0582C98.1747 63.0384 98.044 63.0284 97.9134 63.0284C97.6122 63.0284 97.3438 63.0923 97.108 63.2202C96.875 63.3452 96.6903 63.5199 96.554 63.7443C96.4176 63.9659 96.3494 64.2187 96.3494 64.5028V68.5H95.0753ZM101.897 68.6278C101.368 68.6278 100.897 68.4929 100.482 68.223C100.07 67.9503 99.7461 67.5625 99.5103 67.0597C99.2773 66.554 99.1609 65.9474 99.1609 65.2401C99.1609 64.5327 99.2788 63.9276 99.5146 63.4247C99.7532 62.9219 100.08 62.5369 100.495 62.2699C100.909 62.0028 101.38 61.8693 101.905 61.8693C102.311 61.8693 102.638 61.9375 102.885 62.0739C103.135 62.2074 103.328 62.3636 103.465 62.5426C103.604 62.7216 103.712 62.8793 103.789 63.0156H103.865V59.7727H105.14V68.5H103.895V67.4815H103.789C103.712 67.6207 103.601 67.7798 103.456 67.9588C103.314 68.1378 103.118 68.294 102.868 68.4276C102.618 68.5611 102.294 68.6278 101.897 68.6278ZM102.178 67.5412C102.544 67.5412 102.854 67.4446 103.107 67.2514C103.363 67.0554 103.556 66.7841 103.686 66.4375C103.82 66.0909 103.887 65.6875 103.887 65.2273C103.887 64.7727 103.821 64.375 103.691 64.0341C103.56 63.6932 103.368 63.4276 103.115 63.2372C102.863 63.0469 102.55 62.9517 102.178 62.9517C101.794 62.9517 101.475 63.0511 101.219 63.25C100.963 63.4489 100.77 63.7202 100.64 64.0639C100.512 64.4077 100.448 64.7955 100.448 65.2273C100.448 65.6648 100.513 66.0582 100.644 66.4077C100.775 66.7571 100.968 67.0341 101.223 67.2386C101.482 67.4403 101.8 67.5412 102.178 67.5412Z" fill="#1C4980"/>
<rect x="30.5" y="88.5" width="89" height="69" rx="7.5" fill="#E5F1FC"/>
<mask id="mask0_0_863" style="mask-type:alpha" maskUnits="userSpaceOnUse" x="65" y="101" width="20" height="21">
<rect x="65" y="101.5" width="20" height="20" fill="#D9D9D9"/>
</mask>
<g mask="url(#mask0_0_863)">
<path d="M71.005 115.495H72.505L77.4108 110.589L75.9108 109.089L71.005 113.995V115.495ZM78.1191 109.881L78.8691 109.131C78.9802 109.02 79.0358 108.902 79.0358 108.777C79.0358 108.652 78.9802 108.534 78.8691 108.423L78.0774 107.631C77.9663 107.52 77.8483 107.464 77.7233 107.464C77.5983 107.464 77.4802 107.52 77.3691 107.631L76.6191 108.381L78.1191 109.881ZM69.5598 118.669C69.0843 118.669 68.6772 118.5 68.3386 118.161C67.9999 117.823 67.8306 117.416 67.8306 116.94V106.06C67.8306 105.584 67.9999 105.177 68.3386 104.839C68.6772 104.5 69.0843 104.331 69.5598 104.331H72.9579C73.0922 103.893 73.3448 103.534 73.7156 103.253C74.0863 102.971 74.5145 102.831 75 102.831C75.4855 102.831 75.9136 102.971 76.2844 103.253C76.6552 103.534 76.9078 103.893 77.0421 104.331H80.4402C80.9157 104.331 81.3228 104.5 81.6614 104.839C82.0001 105.177 82.1694 105.584 82.1694 106.06V116.94C82.1694 117.416 82.0001 117.823 81.6614 118.161C81.3228 118.5 80.9157 118.669 80.4402 118.669H69.5598ZM69.5598 116.94H80.4402V106.06H69.5598V116.94ZM75 105.54C75.156 105.54 75.2849 105.489 75.3869 105.387C75.4889 105.285 75.5398 105.156 75.5398 105C75.5398 104.844 75.4889 104.715 75.3869 104.613C75.2849 104.511 75.156 104.46 75 104.46C74.844 104.46 74.7151 104.511 74.6131 104.613C74.5111 104.715 74.4601 104.844 74.4601 105C74.4601 105.156 74.5111 105.285 74.6131 105.387C74.7151 105.489 74.844 105.54 75 105.54Z" fill="#0073E6"/>
</g>
<path d="M41.196 140.5H39.7983L42.9389 131.773H44.4602L47.6009 140.5H46.2031L43.7358 133.358H43.6676L41.196 140.5ZM41.4304 137.082H45.9645V138.19H41.4304V137.082ZM53.6168 135.553L52.462 135.757C52.4137 135.609 52.337 135.469 52.2319 135.335C52.1296 135.202 51.9904 135.092 51.8143 135.007C51.6381 134.922 51.418 134.879 51.1538 134.879C50.793 134.879 50.4918 134.96 50.2504 135.122C50.0089 135.281 49.8881 135.487 49.8881 135.74C49.8881 135.959 49.9691 136.135 50.131 136.268C50.293 136.402 50.5543 136.511 50.9151 136.597L51.9549 136.835C52.5572 136.974 53.006 137.189 53.3015 137.479C53.5969 137.768 53.7447 138.145 53.7447 138.608C53.7447 139 53.631 139.349 53.4038 139.656C53.1793 139.96 52.8654 140.199 52.462 140.372C52.0614 140.545 51.5969 140.632 51.0685 140.632C50.3356 140.632 49.7376 140.476 49.2745 140.163C48.8114 139.848 48.5273 139.401 48.4222 138.821L49.6538 138.634C49.7305 138.955 49.8881 139.197 50.1268 139.362C50.3654 139.524 50.6765 139.605 51.06 139.605C51.4776 139.605 51.8114 139.518 52.0614 139.345C52.3114 139.169 52.4364 138.955 52.4364 138.702C52.4364 138.497 52.3597 138.325 52.2063 138.186C52.0558 138.047 51.8242 137.942 51.5117 137.871L50.4038 137.628C49.793 137.489 49.3413 137.267 49.0487 136.963C48.7589 136.659 48.614 136.274 48.614 135.808C48.614 135.422 48.7219 135.084 48.9379 134.794C49.1538 134.504 49.4521 134.278 49.8327 134.116C50.2134 133.952 50.6495 133.869 51.141 133.869C51.8484 133.869 52.4052 134.023 52.8114 134.33C53.2177 134.634 53.4862 135.041 53.6168 135.553ZM60.0504 135.553L58.8956 135.757C58.8473 135.609 58.7706 135.469 58.6655 135.335C58.5632 135.202 58.424 135.092 58.2479 135.007C58.0717 134.922 57.8516 134.879 57.5874 134.879C57.2266 134.879 56.9254 134.96 56.6839 135.122C56.4425 135.281 56.3217 135.487 56.3217 135.74C56.3217 135.959 56.4027 136.135 56.5646 136.268C56.7266 136.402 56.9879 136.511 57.3487 136.597L58.3885 136.835C58.9908 136.974 59.4396 137.189 59.7351 137.479C60.0305 137.768 60.1783 138.145 60.1783 138.608C60.1783 139 60.0646 139.349 59.8374 139.656C59.6129 139.96 59.299 140.199 58.8956 140.372C58.495 140.545 58.0305 140.632 57.5021 140.632C56.7692 140.632 56.1712 140.476 55.7081 140.163C55.245 139.848 54.9609 139.401 54.8558 138.821L56.0874 138.634C56.1641 138.955 56.3217 139.197 56.5604 139.362C56.799 139.524 57.1101 139.605 57.4936 139.605C57.9112 139.605 58.245 139.518 58.495 139.345C58.745 139.169 58.87 138.955 58.87 138.702C58.87 138.497 58.7933 138.325 58.6399 138.186C58.4893 138.047 58.2578 137.942 57.9453 137.871L56.8374 137.628C56.2266 137.489 55.7749 137.267 55.4822 136.963C55.1925 136.659 55.0476 136.274 55.0476 135.808C55.0476 135.422 55.1555 135.084 55.3714 134.794C55.5874 134.504 55.8857 134.278 56.2663 134.116C56.647 133.952 57.0831 133.869 57.5746 133.869C58.282 133.869 58.8388 134.023 59.245 134.33C59.6513 134.634 59.9197 135.041 60.0504 135.553ZM64.4002 140.632C63.7553 140.632 63.1999 140.494 62.734 140.219C62.271 139.94 61.913 139.55 61.6602 139.047C61.4102 138.541 61.2852 137.949 61.2852 137.27C61.2852 136.599 61.4102 136.009 61.6602 135.497C61.913 134.986 62.2653 134.587 62.717 134.3C63.1715 134.013 63.7028 133.869 64.3107 133.869C64.68 133.869 65.038 133.93 65.3846 134.053C65.7312 134.175 66.0423 134.366 66.3178 134.628C66.5934 134.889 66.8107 135.229 66.9698 135.646C67.1289 136.061 67.2085 136.565 67.2085 137.159V137.611H62.0053V136.656H65.9599C65.9599 136.321 65.8917 136.024 65.7553 135.766C65.619 135.504 65.4272 135.298 65.18 135.148C64.9357 134.997 64.6488 134.922 64.3192 134.922C63.9613 134.922 63.6488 135.01 63.3817 135.186C63.1175 135.359 62.913 135.587 62.7681 135.868C62.6261 136.146 62.555 136.449 62.555 136.776V137.521C62.555 137.959 62.6317 138.331 62.7852 138.638C62.9414 138.945 63.1587 139.179 63.4371 139.341C63.7156 139.5 64.0408 139.58 64.413 139.58C64.6545 139.58 64.8746 139.545 65.0735 139.477C65.2724 139.406 65.4442 139.301 65.5891 139.162C65.734 139.023 65.8448 138.851 65.9215 138.646L67.1275 138.864C67.0309 139.219 66.8576 139.53 66.6076 139.797C66.3604 140.061 66.0494 140.267 65.6744 140.415C65.3022 140.56 64.8775 140.632 64.4002 140.632ZM73.527 135.553L72.3722 135.757C72.3239 135.609 72.2472 135.469 72.142 135.335C72.0398 135.202 71.9006 135.092 71.7244 135.007C71.5483 134.922 71.3281 134.879 71.0639 134.879C70.7031 134.879 70.402 134.96 70.1605 135.122C69.919 135.281 69.7983 135.487 69.7983 135.74C69.7983 135.959 69.8793 136.135 70.0412 136.268C70.2031 136.402 70.4645 136.511 70.8253 136.597L71.8651 136.835C72.4673 136.974 72.9162 137.189 73.2116 137.479C73.5071 137.768 73.6548 138.145 73.6548 138.608C73.6548 139 73.5412 139.349 73.3139 139.656C73.0895 139.96 72.7756 140.199 72.3722 140.372C71.9716 140.545 71.5071 140.632 70.9787 140.632C70.2457 140.632 69.6477 140.476 69.1847 140.163C68.7216 139.848 68.4375 139.401 68.3324 138.821L69.5639 138.634C69.6406 138.955 69.7983 139.197 70.0369 139.362C70.2756 139.524 70.5866 139.605 70.9702 139.605C71.3878 139.605 71.7216 139.518 71.9716 139.345C72.2216 139.169 72.3466 138.955 72.3466 138.702C72.3466 138.497 72.2699 138.325 72.1165 138.186C71.9659 138.047 71.7344 137.942 71.4219 137.871L70.3139 137.628C69.7031 137.489 69.2514 137.267 68.9588 136.963C68.669 136.659 68.5241 136.274 68.5241 135.808C68.5241 135.422 68.6321 135.084 68.848 134.794C69.0639 134.504 69.3622 134.278 69.7429 134.116C70.1236 133.952 70.5597 133.869 71.0511 133.869C71.7585 133.869 72.3153 134.023 72.7216 134.33C73.1278 134.634 73.3963 135.041 73.527 135.553ZM79.9606 135.553L78.8058 135.757C78.7575 135.609 78.6808 135.469 78.5756 135.335C78.4734 135.202 78.3342 135.092 78.158 135.007C77.9819 134.922 77.7617 134.879 77.4975 134.879C77.1367 134.879 76.8356 134.96 76.5941 135.122C76.3526 135.281 76.2319 135.487 76.2319 135.74C76.2319 135.959 76.3129 136.135 76.4748 136.268C76.6367 136.402 76.8981 136.511 77.2589 136.597L78.2987 136.835C78.9009 136.974 79.3498 137.189 79.6452 137.479C79.9407 137.768 80.0884 138.145 80.0884 138.608C80.0884 139 79.9748 139.349 79.7475 139.656C79.5231 139.96 79.2092 140.199 78.8058 140.372C78.4052 140.545 77.9407 140.632 77.4123 140.632C76.6793 140.632 76.0813 140.476 75.6183 140.163C75.1552 139.848 74.8711 139.401 74.766 138.821L75.9975 138.634C76.0742 138.955 76.2319 139.197 76.4705 139.362C76.7092 139.524 77.0202 139.605 77.4038 139.605C77.8214 139.605 78.1552 139.518 78.4052 139.345C78.6552 139.169 78.7802 138.955 78.7802 138.702C78.7802 138.497 78.7035 138.325 78.5501 138.186C78.3995 138.047 78.168 137.942 77.8555 137.871L76.7475 137.628C76.1367 137.489 75.685 137.267 75.3924 136.963C75.1026 136.659 74.9577 136.274 74.9577 135.808C74.9577 135.422 75.0657 135.084 75.2816 134.794C75.4975 134.504 75.7958 134.278 76.1765 134.116C76.5572 133.952 76.9933 133.869 77.4847 133.869C78.1921 133.869 78.7489 134.023 79.1552 134.33C79.5614 134.634 79.8299 135.041 79.9606 135.553ZM81.4893 140.5V133.955H82.7124V135.02H82.7933C82.9297 134.659 83.1527 134.378 83.4624 134.176C83.772 133.972 84.1428 133.869 84.5746 133.869C85.0121 133.869 85.3786 133.972 85.674 134.176C85.9723 134.381 86.1925 134.662 86.3345 135.02H86.4027C86.5589 134.67 86.8075 134.392 87.1484 134.185C87.4893 133.974 87.8956 133.869 88.3672 133.869C88.9609 133.869 89.4453 134.055 89.8203 134.428C90.1982 134.8 90.3871 135.361 90.3871 136.111V140.5H89.1129V136.23C89.1129 135.787 88.9922 135.466 88.7507 135.267C88.5092 135.068 88.2209 134.969 87.8857 134.969C87.4709 134.969 87.1484 135.097 86.9183 135.352C86.6882 135.605 86.5732 135.93 86.5732 136.328V140.5H85.3033V136.149C85.3033 135.794 85.1925 135.509 84.9709 135.293C84.7493 135.077 84.4609 134.969 84.1058 134.969C83.8643 134.969 83.6413 135.033 83.4368 135.161C83.2351 135.286 83.0717 135.46 82.9467 135.685C82.8246 135.909 82.7635 136.169 82.7635 136.464V140.5H81.4893ZM94.9158 140.632C94.271 140.632 93.7156 140.494 93.2496 140.219C92.7866 139.94 92.4286 139.55 92.1758 139.047C91.9258 138.541 91.8008 137.949 91.8008 137.27C91.8008 136.599 91.9258 136.009 92.1758 135.497C92.4286 134.986 92.7809 134.587 93.2326 134.3C93.6871 134.013 94.2184 133.869 94.8263 133.869C95.1957 133.869 95.5536 133.93 95.9002 134.053C96.2468 134.175 96.5579 134.366 96.8335 134.628C97.109 134.889 97.3263 135.229 97.4854 135.646C97.6445 136.061 97.7241 136.565 97.7241 137.159V137.611H92.521V136.656H96.4755C96.4755 136.321 96.4073 136.024 96.271 135.766C96.1346 135.504 95.9428 135.298 95.6957 135.148C95.4513 134.997 95.1644 134.922 94.8349 134.922C94.4769 134.922 94.1644 135.01 93.8974 135.186C93.6332 135.359 93.4286 135.587 93.2837 135.868C93.1417 136.146 93.0707 136.449 93.0707 136.776V137.521C93.0707 137.959 93.1474 138.331 93.3008 138.638C93.457 138.945 93.6744 139.179 93.9528 139.341C94.2312 139.5 94.5565 139.58 94.9286 139.58C95.1701 139.58 95.3903 139.545 95.5891 139.477C95.788 139.406 95.9599 139.301 96.1048 139.162C96.2496 139.023 96.3604 138.851 96.4371 138.646L97.6431 138.864C97.5465 139.219 97.3732 139.53 97.1232 139.797C96.8761 140.061 96.565 140.267 96.19 140.415C95.8178 140.56 95.3931 140.632 94.9158 140.632ZM100.412 136.614V140.5H99.1378V133.955H100.361V135.02H100.442C100.592 134.673 100.828 134.395 101.149 134.185C101.473 133.974 101.881 133.869 102.372 133.869C102.818 133.869 103.209 133.963 103.544 134.151C103.879 134.335 104.139 134.611 104.324 134.977C104.509 135.344 104.601 135.797 104.601 136.337V140.5H103.327V136.49C103.327 136.016 103.203 135.645 102.956 135.378C102.709 135.108 102.369 134.973 101.938 134.973C101.642 134.973 101.379 135.037 101.149 135.165C100.922 135.293 100.741 135.48 100.608 135.727C100.477 135.972 100.412 136.267 100.412 136.614ZM109.365 133.955V134.977H105.79V133.955H109.365ZM106.749 132.386H108.023V138.578C108.023 138.825 108.06 139.011 108.134 139.136C108.207 139.259 108.303 139.342 108.419 139.388C108.538 139.43 108.668 139.452 108.807 139.452C108.909 139.452 108.999 139.445 109.075 139.43C109.152 139.416 109.212 139.405 109.254 139.396L109.484 140.449C109.411 140.477 109.305 140.506 109.169 140.534C109.033 140.565 108.862 140.582 108.658 140.585C108.322 140.591 108.01 140.531 107.72 140.406C107.43 140.281 107.196 140.088 107.017 139.827C106.838 139.565 106.749 139.237 106.749 138.842V132.386Z" fill="#0073E6"/>
<rect x="30.5" y="88.5" width="89" height="69" rx="7.5" stroke="#0073E6"/>
<rect x="30" y="160" width="90" height="70" rx="8" fill="white"/>
<mask id="mask1_0_863" style="mask-type:alpha" maskUnits="userSpaceOnUse" x="65" y="173" width="20" height="21">
<rect x="65" y="173.5" width="20" height="20" fill="#D9D9D9"/>
</mask>
<g mask="url(#mask1_0_863)">
<path d="M76.6296 185.801C76.8657 185.801 77.0636 185.721 77.2233 185.561C77.383 185.401 77.4629 185.203 77.4629 184.967C77.4629 184.731 77.383 184.533 77.2233 184.374C77.0636 184.214 76.8657 184.134 76.6296 184.134C76.3934 184.134 76.1955 184.214 76.0358 184.374C75.8761 184.533 75.7962 184.731 75.7962 184.967C75.7962 185.203 75.8761 185.401 76.0358 185.561C76.1955 185.721 76.3934 185.801 76.6296 185.801ZM76.0254 183.344H77.2337C77.2337 182.981 77.2675 182.709 77.3349 182.529C77.4024 182.349 77.5512 182.15 77.7813 181.934C78.0696 181.66 78.3292 181.382 78.56 181.101C78.7909 180.82 78.9063 180.467 78.9063 180.043C78.9063 179.412 78.696 178.907 78.2755 178.528C77.855 178.149 77.3012 177.96 76.6141 177.96C76.0833 177.96 75.6096 178.109 75.193 178.406C74.7763 178.703 74.4863 179.11 74.3229 179.629L75.4063 180.08C75.5002 179.767 75.6548 179.527 75.87 179.358C76.0853 179.19 76.3333 179.106 76.6141 179.106C76.9388 179.106 77.2005 179.195 77.3995 179.374C77.5985 179.553 77.6979 179.785 77.6979 180.07C77.6979 180.363 77.5903 180.618 77.375 180.835C77.1597 181.052 76.934 181.272 76.6979 181.497C76.4123 181.761 76.2288 182.011 76.1474 182.247C76.0661 182.483 76.0254 182.849 76.0254 183.344ZM71.6744 188.555C71.1955 188.555 70.7875 188.386 70.4506 188.049C70.1137 187.712 69.9452 187.305 69.9452 186.826V176.945C69.9452 176.466 70.1137 176.058 70.4506 175.721C70.7875 175.384 71.1955 175.216 71.6744 175.216H81.5548C82.0337 175.216 82.4417 175.384 82.7786 175.721C83.1155 176.058 83.284 176.466 83.284 176.945V186.826C83.284 187.305 83.1155 187.712 82.7786 188.049C82.4417 188.386 82.0337 188.555 81.5548 188.555H71.6744ZM71.6744 186.826H81.5548V176.945H71.6744V186.826ZM68.4452 191.784C67.9663 191.784 67.5584 191.615 67.2214 191.279C66.8845 190.942 66.716 190.534 66.716 190.055V178.445H68.4452V190.055H80.0548V191.784H68.4452Z" fill="#1C4980"/>
</g>
<path d="M45.4588 203.773H47.0568L49.8352 210.557H49.9375L52.7159 203.773H54.3139V212.5H53.0611V206.185H52.9801L50.4062 212.487H49.3665L46.7926 206.18H46.7116V212.5H45.4588V203.773ZM56.9315 214.955C56.7411 214.955 56.5678 214.939 56.4116 214.908C56.2553 214.879 56.1388 214.848 56.0621 214.814L56.369 213.77C56.6019 213.832 56.8093 213.859 56.9911 213.851C57.1729 213.842 57.3335 213.774 57.4727 213.646C57.6147 213.518 57.7397 213.31 57.8477 213.02L58.0053 212.585L55.6104 205.955H56.9741L58.6317 211.034H58.6999L60.3576 205.955H61.7255L59.0281 213.374C58.9031 213.714 58.744 214.003 58.5508 214.239C58.3576 214.477 58.1275 214.656 57.8604 214.776C57.5934 214.895 57.2837 214.955 56.9315 214.955ZM66.201 212.5V203.773H67.5178V211.366H71.4723V212.5H66.201ZM72.8722 212.5V205.955H74.1463V212.5H72.8722ZM73.5156 204.945C73.294 204.945 73.1037 204.871 72.9446 204.723C72.7884 204.572 72.7102 204.393 72.7102 204.186C72.7102 203.976 72.7884 203.797 72.9446 203.649C73.1037 203.499 73.294 203.423 73.5156 203.423C73.7372 203.423 73.9261 203.499 74.0824 203.649C74.2415 203.797 74.321 203.976 74.321 204.186C74.321 204.393 74.2415 204.572 74.0824 204.723C73.9261 204.871 73.7372 204.945 73.5156 204.945ZM75.9627 212.5V203.773H77.2369V207.016H77.3136C77.3874 206.879 77.494 206.722 77.6332 206.543C77.7724 206.364 77.9656 206.207 78.2127 206.074C78.4599 205.938 78.7866 205.869 79.1928 205.869C79.7212 205.869 80.1928 206.003 80.6076 206.27C81.0224 206.537 81.3477 206.922 81.5835 207.425C81.8221 207.928 81.9414 208.533 81.9414 209.24C81.9414 209.947 81.8235 210.554 81.5877 211.06C81.3519 211.562 81.0281 211.95 80.6161 212.223C80.2042 212.493 79.734 212.628 79.2056 212.628C78.8079 212.628 78.4826 212.561 78.2298 212.428C77.9798 212.294 77.7837 212.138 77.6417 211.959C77.4996 211.78 77.3903 211.621 77.3136 211.482H77.207V212.5H75.9627ZM77.2113 209.227C77.2113 209.687 77.2781 210.091 77.4116 210.438C77.5451 210.784 77.7383 211.055 77.9911 211.251C78.244 211.445 78.5536 211.541 78.9201 211.541C79.3008 211.541 79.619 211.44 79.8746 211.239C80.1303 211.034 80.3235 210.757 80.4542 210.408C80.5877 210.058 80.6545 209.665 80.6545 209.227C80.6545 208.795 80.5891 208.408 80.4585 208.064C80.3306 207.72 80.1374 207.449 79.8789 207.25C79.6232 207.051 79.3036 206.952 78.9201 206.952C78.5508 206.952 78.2383 207.047 77.9826 207.237C77.7298 207.428 77.538 207.693 77.4073 208.034C77.2766 208.375 77.2113 208.773 77.2113 209.227ZM83.3722 212.5V205.955H84.6037V206.994H84.6719C84.7912 206.642 85.0014 206.365 85.3026 206.163C85.6065 205.959 85.9503 205.857 86.3338 205.857C86.4134 205.857 86.5071 205.859 86.6151 205.865C86.7259 205.871 86.8125 205.878 86.875 205.886V207.105C86.8239 207.091 86.733 207.075 86.6023 207.058C86.4716 207.038 86.3409 207.028 86.2102 207.028C85.9091 207.028 85.6406 207.092 85.4048 207.22C85.1719 207.345 84.9872 207.52 84.8509 207.744C84.7145 207.966 84.6463 208.219 84.6463 208.503V212.5H83.3722ZM89.8239 212.645C89.4091 212.645 89.0341 212.568 88.6989 212.415C88.3636 212.259 88.098 212.033 87.902 211.737C87.7088 211.442 87.6122 211.08 87.6122 210.651C87.6122 210.281 87.6832 209.977 87.8253 209.739C87.9673 209.5 88.1591 209.311 88.4006 209.172C88.642 209.033 88.9119 208.928 89.2102 208.857C89.5085 208.786 89.8125 208.732 90.1222 208.695C90.5142 208.649 90.8324 208.612 91.0767 208.584C91.321 208.553 91.4986 208.503 91.6094 208.435C91.7202 208.366 91.7756 208.256 91.7756 208.102V208.072C91.7756 207.7 91.6705 207.412 91.4602 207.207C91.2528 207.003 90.9432 206.901 90.5312 206.901C90.1023 206.901 89.7642 206.996 89.517 207.186C89.2727 207.374 89.1037 207.582 89.0099 207.812L87.8125 207.54C87.9545 207.142 88.1619 206.821 88.4347 206.577C88.7102 206.33 89.027 206.151 89.3849 206.04C89.7429 205.926 90.1193 205.869 90.5142 205.869C90.7756 205.869 91.0526 205.901 91.3452 205.963C91.6406 206.023 91.9162 206.134 92.1719 206.295C92.4304 206.457 92.642 206.689 92.8068 206.99C92.9716 207.288 93.054 207.676 93.054 208.153V212.5H91.8097V211.605H91.7585C91.6761 211.77 91.5526 211.932 91.3878 212.091C91.223 212.25 91.0114 212.382 90.7528 212.487C90.4943 212.592 90.1847 212.645 89.8239 212.645ZM90.1009 211.622C90.4531 211.622 90.7543 211.553 91.0043 211.413C91.2571 211.274 91.4489 211.092 91.5795 210.868C91.7131 210.641 91.7798 210.398 91.7798 210.139V209.295C91.7344 209.341 91.6463 209.384 91.5156 209.423C91.3878 209.46 91.2415 209.493 91.0767 209.521C90.9119 209.547 90.7514 209.571 90.5952 209.594C90.4389 209.614 90.3082 209.631 90.2031 209.645C89.956 209.676 89.7301 209.729 89.5256 209.803C89.3239 209.876 89.1619 209.983 89.0398 210.122C88.9205 210.259 88.8608 210.44 88.8608 210.668C88.8608 210.983 88.9773 211.222 89.2102 211.384C89.4432 211.543 89.7401 211.622 90.1009 211.622ZM94.7511 212.5V205.955H95.9826V206.994H96.0508C96.1701 206.642 96.3803 206.365 96.6815 206.163C96.9854 205.959 97.3292 205.857 97.7127 205.857C97.7923 205.857 97.886 205.859 97.994 205.865C98.1048 205.871 98.1914 205.878 98.2539 205.886V207.105C98.2028 207.091 98.1119 207.075 97.9812 207.058C97.8505 207.038 97.7198 207.028 97.5891 207.028C97.288 207.028 97.0195 207.092 96.7837 207.22C96.5508 207.345 96.3661 207.52 96.2298 207.744C96.0934 207.966 96.0252 208.219 96.0252 208.503V212.5H94.7511ZM100.361 214.955C100.171 214.955 99.9975 214.939 99.8413 214.908C99.685 214.879 99.5685 214.848 99.4918 214.814L99.7987 213.77C100.032 213.832 100.239 213.859 100.421 213.851C100.603 213.842 100.763 213.774 100.902 213.646C101.044 213.518 101.169 213.31 101.277 213.02L101.435 212.585L99.0401 205.955H100.404L102.061 211.034H102.13L103.787 205.955H105.155L102.458 213.374C102.333 213.714 102.174 214.003 101.98 214.239C101.787 214.477 101.557 214.656 101.29 214.776C101.023 214.895 100.713 214.955 100.361 214.955Z" fill="#1C4980"/>
<rect x="30" y="232" width="90" height="70" rx="8" fill="white"/>
<rect x="30" y="304" width="90" height="70" rx="8" fill="white"/>
<rect x="30" y="376" width="90" height="70" rx="8" fill="white"/>
<rect x="30" y="448" width="90" height="70" rx="8" fill="white"/>
<path d="M30 257H120" stroke="#BACBD5" stroke-dasharray="2 2"/>
<rect x="52" y="273.5" width="46" height="17" rx="8.5" fill="#FBEBEA"/>
<path d="M60.9134 286H59.7486L62.3658 278.727H63.6335L66.2507 286H65.0859L63.0298 280.048H62.973L60.9134 286ZM61.1087 283.152H64.8871V284.075H61.1087V283.152ZM69.1697 286.107C68.7294 286.107 68.3364 285.994 67.9908 285.769C67.6475 285.542 67.3776 285.219 67.1811 284.8C66.987 284.378 66.8899 283.873 66.8899 283.283C66.8899 282.694 66.9882 282.19 67.1847 281.771C67.3835 281.352 67.6558 281.031 68.0014 280.808C68.3471 280.586 68.7389 280.474 69.1768 280.474C69.5154 280.474 69.7876 280.531 69.9936 280.645C70.2019 280.756 70.3629 280.886 70.4766 281.036C70.5926 281.185 70.6825 281.316 70.7464 281.43H70.8104V278.727H71.8722V286H70.8352V285.151H70.7464C70.6825 285.267 70.5902 285.4 70.4695 285.549C70.3511 285.698 70.1877 285.828 69.9794 285.94C69.7711 286.051 69.5012 286.107 69.1697 286.107ZM69.4041 285.201C69.7095 285.201 69.9676 285.121 70.1783 284.96C70.3913 284.796 70.5523 284.57 70.6612 284.281C70.7725 283.992 70.8281 283.656 70.8281 283.273C70.8281 282.894 70.7737 282.562 70.6648 282.278C70.5559 281.994 70.3961 281.773 70.1854 281.614C69.9747 281.456 69.7143 281.376 69.4041 281.376C69.0845 281.376 68.8182 281.459 68.6051 281.625C68.392 281.791 68.2311 282.017 68.1222 282.303C68.0156 282.59 67.9624 282.913 67.9624 283.273C67.9624 283.637 68.0168 283.965 68.1257 284.256C68.2346 284.548 68.3956 284.778 68.6087 284.949C68.8241 285.117 69.0893 285.201 69.4041 285.201ZM73.3876 286V280.545H74.4068V281.433H74.4743C74.5879 281.133 74.7737 280.898 75.0318 280.73C75.2898 280.56 75.5988 280.474 75.9586 280.474C76.3232 280.474 76.6286 280.56 76.8748 280.73C77.1234 280.901 77.3069 281.135 77.4252 281.433H77.4821C77.6123 281.142 77.8194 280.91 78.1035 280.737C78.3876 280.562 78.7261 280.474 79.1191 280.474C79.6139 280.474 80.0176 280.629 80.3301 280.94C80.6449 281.25 80.8024 281.717 80.8024 282.342V286H79.7406V282.442C79.7406 282.072 79.64 281.805 79.4387 281.639C79.2375 281.473 78.9972 281.391 78.7179 281.391C78.3722 281.391 78.1035 281.497 77.9118 281.71C77.72 281.921 77.6241 282.192 77.6241 282.523V286H76.5659V282.374C76.5659 282.078 76.4735 281.84 76.2889 281.661C76.1042 281.481 75.8639 281.391 75.568 281.391C75.3668 281.391 75.1809 281.444 75.0105 281.55C74.8424 281.655 74.7063 281.8 74.6021 281.987C74.5003 282.174 74.4494 282.391 74.4494 282.637V286H73.3876ZM82.2255 286V280.545H83.2873V286H82.2255ZM82.7617 279.704C82.5771 279.704 82.4184 279.642 82.2859 279.519C82.1557 279.394 82.0906 279.245 82.0906 279.072C82.0906 278.897 82.1557 278.747 82.2859 278.624C82.4184 278.499 82.5771 278.436 82.7617 278.436C82.9464 278.436 83.1038 278.499 83.234 278.624C83.3666 278.747 83.4329 278.897 83.4329 279.072C83.4329 279.245 83.3666 279.394 83.234 279.519C83.1038 279.642 82.9464 279.704 82.7617 279.704ZM85.7775 282.761V286H84.7157V280.545H85.7349V281.433H85.8024C85.9279 281.144 86.1243 280.912 86.3919 280.737C86.6618 280.562 87.0015 280.474 87.411 280.474C87.7827 280.474 88.1083 280.553 88.3876 280.709C88.667 280.863 88.8836 281.092 89.0375 281.398C89.1913 281.703 89.2683 282.081 89.2683 282.531V286H88.2065V282.658C88.2065 282.263 88.1035 281.954 87.8975 281.732C87.6916 281.507 87.4087 281.394 87.0488 281.394C86.8026 281.394 86.5836 281.447 86.3919 281.554C86.2025 281.661 86.0521 281.817 85.9409 282.023C85.832 282.226 85.7775 282.473 85.7775 282.761Z" fill="#D63500"/>
<rect x="52" y="273.5" width="46" height="17" rx="8.5" stroke="#D63500"/>
<rect x="30" y="297" width="90" height="80" rx="8" fill="white"/>
<mask id="mask2_0_863" style="mask-type:alpha" maskUnits="userSpaceOnUse" x="65" y="307" width="20" height="20">
<rect x="65" y="307" width="20" height="20" fill="#D9D9D9"/>
</mask>
<g mask="url(#mask2_0_863)">
<path d="M75.2781 320.684C74.7316 321.228 74.0694 321.497 73.2917 321.49C72.5139 321.483 71.8542 321.207 71.3125 320.663C70.7708 320.119 70.5 319.463 70.5 318.694C70.5 317.926 70.7733 317.27 71.3198 316.725L74.7219 313.316C75.2684 312.772 75.9306 312.503 76.7083 312.51C77.4861 312.517 78.1458 312.793 78.6875 313.337C79.2292 313.881 79.5 314.537 79.5 315.306C79.5 316.074 79.2267 316.73 78.6802 317.275L75.2781 320.684ZM72.375 319.604C72.7361 319.965 73.1015 320.095 73.4711 319.992C73.8407 319.889 74.0934 319.767 74.2292 319.625L75.3958 318.458L73.5417 316.625L72.375 317.792C72.125 318.042 72 318.344 72 318.698C72 319.052 72.125 319.354 72.375 319.604ZM77.625 314.396C77.2639 314.035 76.9015 313.905 76.5377 314.008C76.174 314.111 75.9253 314.233 75.7917 314.375L74.6042 315.542L76.4583 317.396L77.625 316.229C77.875 315.979 78 315.674 78 315.312C78 314.951 77.875 314.646 77.625 314.396ZM69.5 324C69.0875 324 68.7344 323.853 68.4406 323.559C68.1469 323.266 68 322.913 68 322.5V311.5C68 311.088 68.1469 310.734 68.4406 310.441C68.7344 310.147 69.0875 310 69.5 310H73.0625C73.1736 309.569 73.4063 309.212 73.7604 308.927C74.1146 308.642 74.5278 308.5 75 308.5C75.4722 308.5 75.8854 308.642 76.2396 308.927C76.5938 309.212 76.8264 309.569 76.9375 310H80.5C80.9125 310 81.2656 310.147 81.5594 310.441C81.8531 310.734 82 311.088 82 311.5V322.5C82 322.913 81.8531 323.266 81.5594 323.559C81.2656 323.853 80.9125 324 80.5 324H69.5ZM69.5 322.5H80.5V311.5H69.5V322.5ZM75 311C75.1444 311 75.2639 310.953 75.3583 310.858C75.4528 310.764 75.5 310.644 75.5 310.5C75.5 310.356 75.4528 310.236 75.3583 310.142C75.2639 310.047 75.1444 310 75 310C74.8556 310 74.7361 310.047 74.6417 310.142C74.5472 310.236 74.5 310.356 74.5 310.5C74.5 310.644 74.5472 310.764 74.6417 310.858C74.7361 310.953 74.8556 311 75 311Z" fill="#1C4980"/>
</g>
<path d="M57.6072 346V337.273H60.718C61.3942 337.273 61.9553 337.389 62.4013 337.622C62.8501 337.855 63.1854 338.178 63.407 338.589C63.6286 338.999 63.7393 339.472 63.7393 340.009C63.7393 340.543 63.6271 341.013 63.4027 341.419C63.1811 341.822 62.8459 342.136 62.397 342.361C61.951 342.585 61.3899 342.697 60.7138 342.697H58.3572V341.564H60.5945C61.0206 341.564 61.3672 341.503 61.6342 341.381C61.9041 341.259 62.1016 341.081 62.2266 340.848C62.3516 340.615 62.4141 340.335 62.4141 340.009C62.4141 339.679 62.3501 339.393 62.2223 339.152C62.0973 338.911 61.8999 338.726 61.63 338.598C61.3629 338.467 61.0121 338.402 60.5774 338.402H58.924V346H57.6072ZM61.9155 342.062L64.0717 346H62.5717L60.4581 342.062H61.9155ZM67.9144 346.132C67.3008 346.132 66.7653 345.991 66.3079 345.71C65.8505 345.429 65.4954 345.036 65.2425 344.53C64.9897 344.024 64.8633 343.433 64.8633 342.757C64.8633 342.078 64.9897 341.484 65.2425 340.976C65.4954 340.467 65.8505 340.072 66.3079 339.791C66.7653 339.51 67.3008 339.369 67.9144 339.369C68.5281 339.369 69.0636 339.51 69.521 339.791C69.9783 340.072 70.3335 340.467 70.5863 340.976C70.8391 341.484 70.9656 342.078 70.9656 342.757C70.9656 343.433 70.8391 344.024 70.5863 344.53C70.3335 345.036 69.9783 345.429 69.521 345.71C69.0636 345.991 68.5281 346.132 67.9144 346.132ZM67.9187 345.062C68.3164 345.062 68.646 344.957 68.9073 344.747C69.1687 344.537 69.3619 344.257 69.4869 343.908C69.6147 343.558 69.6786 343.173 69.6786 342.753C69.6786 342.335 69.6147 341.952 69.4869 341.602C69.3619 341.25 69.1687 340.967 68.9073 340.754C68.646 340.541 68.3164 340.435 67.9187 340.435C67.5181 340.435 67.1857 340.541 66.9215 340.754C66.6602 340.967 66.4656 341.25 66.3377 341.602C66.2127 341.952 66.1502 342.335 66.1502 342.753C66.1502 343.173 66.2127 343.558 66.3377 343.908C66.4656 344.257 66.6602 344.537 66.9215 344.747C67.1857 344.957 67.5181 345.062 67.9187 345.062ZM76.5341 343.286V339.455H77.8125V346H76.5597V344.866H76.4915C76.3409 345.216 76.0994 345.507 75.767 345.74C75.4375 345.97 75.027 346.085 74.5355 346.085C74.1151 346.085 73.7429 345.993 73.419 345.808C73.098 345.621 72.8452 345.344 72.6605 344.977C72.4787 344.611 72.3878 344.158 72.3878 343.618V339.455H73.6619V343.464C73.6619 343.911 73.7855 344.266 74.0327 344.53C74.2798 344.794 74.6009 344.926 74.9957 344.926C75.2344 344.926 75.4716 344.866 75.7074 344.747C75.946 344.628 76.1435 344.447 76.2997 344.206C76.4588 343.964 76.5369 343.658 76.5341 343.286ZM80.7987 342.114V346H79.5245V339.455H80.7475V340.52H80.8285C80.979 340.173 81.2148 339.895 81.5359 339.685C81.8597 339.474 82.2674 339.369 82.7589 339.369C83.2049 339.369 83.5955 339.463 83.9308 339.651C84.266 339.835 84.5259 340.111 84.7106 340.477C84.8952 340.844 84.9876 341.297 84.9876 341.837V346H83.7134V341.99C83.7134 341.516 83.5898 341.145 83.3427 340.878C83.0955 340.608 82.756 340.473 82.3242 340.473C82.0288 340.473 81.766 340.537 81.5359 340.665C81.3086 340.793 81.1282 340.98 80.9947 341.227C80.864 341.472 80.7987 341.767 80.7987 342.114ZM89.1467 346.128C88.6183 346.128 88.1467 345.993 87.7319 345.723C87.32 345.45 86.9961 345.062 86.7603 344.56C86.5273 344.054 86.4109 343.447 86.4109 342.74C86.4109 342.033 86.5288 341.428 86.7646 340.925C87.0032 340.422 87.3299 340.037 87.7447 339.77C88.1594 339.503 88.6296 339.369 89.1552 339.369C89.5614 339.369 89.8881 339.438 90.1353 339.574C90.3853 339.707 90.5785 339.864 90.7148 340.043C90.854 340.222 90.962 340.379 91.0387 340.516H91.1154V337.273H92.3896V346H91.1452V344.982H91.0387C90.962 345.121 90.8512 345.28 90.7063 345.459C90.5643 345.638 90.3683 345.794 90.1183 345.928C89.8683 346.061 89.5444 346.128 89.1467 346.128ZM89.4279 345.041C89.7944 345.041 90.104 344.945 90.3569 344.751C90.6126 344.555 90.8058 344.284 90.9364 343.938C91.07 343.591 91.1367 343.187 91.1367 342.727C91.1367 342.273 91.0714 341.875 90.9407 341.534C90.81 341.193 90.6183 340.928 90.3654 340.737C90.1126 340.547 89.8001 340.452 89.4279 340.452C89.0444 340.452 88.7248 340.551 88.4691 340.75C88.2134 340.949 88.0202 341.22 87.8896 341.564C87.7617 341.908 87.6978 342.295 87.6978 342.727C87.6978 343.165 87.7631 343.558 87.8938 343.908C88.0245 344.257 88.2177 344.534 88.4734 344.739C88.7319 344.94 89.0501 345.041 89.4279 345.041ZM62.1914 356.565C62.146 356.162 61.9585 355.849 61.6289 355.628C61.2994 355.403 60.8846 355.291 60.3846 355.291C60.0266 355.291 59.717 355.348 59.4556 355.462C59.1942 355.572 58.9911 355.726 58.8462 355.922C58.7042 356.115 58.6332 356.335 58.6332 356.582C58.6332 356.79 58.6815 356.969 58.7781 357.119C58.8775 357.27 59.0067 357.396 59.1658 357.499C59.3278 357.598 59.5011 357.682 59.6857 357.75C59.8704 357.815 60.0479 357.869 60.2184 357.912L61.0707 358.134C61.3491 358.202 61.6346 358.294 61.9272 358.411C62.2198 358.527 62.4911 358.68 62.7411 358.871C62.9911 359.061 63.1928 359.297 63.3462 359.578C63.5025 359.859 63.5806 360.196 63.5806 360.588C63.5806 361.082 63.4528 361.521 63.1971 361.905C62.9442 362.288 62.5763 362.591 62.0934 362.812C61.6133 363.034 61.0323 363.145 60.3505 363.145C59.6971 363.145 59.1317 363.041 58.6545 362.834C58.1772 362.626 57.8036 362.332 57.5337 361.952C57.2638 361.568 57.1147 361.114 57.0863 360.588H58.4073C58.4329 360.903 58.5352 361.166 58.7141 361.376C58.896 361.584 59.1275 361.739 59.4087 361.841C59.6928 361.94 60.0039 361.99 60.342 361.99C60.7141 361.99 61.0451 361.932 61.3349 361.815C61.6275 361.696 61.8576 361.531 62.0252 361.321C62.1928 361.108 62.2766 360.859 62.2766 360.575C62.2766 360.317 62.2028 360.105 62.055 359.94C61.9102 359.776 61.7127 359.639 61.4627 359.531C61.2156 359.423 60.9357 359.328 60.6232 359.246L59.592 358.964C58.8931 358.774 58.3391 358.494 57.93 358.125C57.5238 357.756 57.3207 357.267 57.3207 356.659C57.3207 356.156 57.457 355.717 57.7298 355.342C58.0025 354.967 58.3718 354.676 58.8377 354.469C59.3036 354.259 59.8292 354.153 60.4144 354.153C61.0053 354.153 61.5266 354.257 61.9783 354.464C62.4329 354.672 62.7908 354.957 63.0522 355.321C63.3136 355.682 63.4499 356.097 63.4613 356.565H62.1914ZM68.1072 356.455V357.477H64.532V356.455H68.1072ZM65.4908 354.886H66.7649V361.078C66.7649 361.325 66.8018 361.511 66.8757 361.636C66.9496 361.759 67.0447 361.842 67.1612 361.888C67.2805 361.93 67.4098 361.952 67.549 361.952C67.6513 361.952 67.7408 361.945 67.8175 361.93C67.8942 361.916 67.9538 361.905 67.9964 361.896L68.2266 362.949C68.1527 362.977 68.0476 363.006 67.9112 363.034C67.7749 363.065 67.6044 363.082 67.3999 363.085C67.0646 363.091 66.7521 363.031 66.4624 362.906C66.1726 362.781 65.9382 362.588 65.7592 362.327C65.5803 362.065 65.4908 361.737 65.4908 361.342V354.886ZM71.4215 363.145C71.0067 363.145 70.6317 363.068 70.2965 362.915C69.9613 362.759 69.6957 362.533 69.4996 362.237C69.3065 361.942 69.2099 361.58 69.2099 361.151C69.2099 360.781 69.2809 360.477 69.4229 360.239C69.565 360 69.7567 359.811 69.9982 359.672C70.2397 359.533 70.5096 359.428 70.8079 359.357C71.1062 359.286 71.4102 359.232 71.7198 359.195C72.1119 359.149 72.43 359.112 72.6744 359.084C72.9187 359.053 73.0962 359.003 73.207 358.935C73.3178 358.866 73.3732 358.756 73.3732 358.602V358.572C73.3732 358.2 73.2681 357.912 73.0579 357.707C72.8505 357.503 72.5408 357.401 72.1289 357.401C71.6999 357.401 71.3619 357.496 71.1147 357.686C70.8704 357.874 70.7013 358.082 70.6076 358.312L69.4102 358.04C69.5522 357.642 69.7596 357.321 70.0323 357.077C70.3079 356.83 70.6246 356.651 70.9826 356.54C71.3406 356.426 71.717 356.369 72.1119 356.369C72.3732 356.369 72.6502 356.401 72.9428 356.463C73.2383 356.523 73.5138 356.634 73.7695 356.795C74.0281 356.957 74.2397 357.189 74.4045 357.49C74.5692 357.788 74.6516 358.176 74.6516 358.653V363H73.4073V362.105H73.3562C73.2738 362.27 73.1502 362.432 72.9854 362.591C72.8207 362.75 72.609 362.882 72.3505 362.987C72.092 363.092 71.7823 363.145 71.4215 363.145ZM71.6985 362.122C72.0508 362.122 72.3519 362.053 72.6019 361.913C72.8548 361.774 73.0465 361.592 73.1772 361.368C73.3107 361.141 73.3775 360.898 73.3775 360.639V359.795C73.332 359.841 73.244 359.884 73.1133 359.923C72.9854 359.96 72.8391 359.993 72.6744 360.021C72.5096 360.047 72.3491 360.071 72.1928 360.094C72.0366 360.114 71.9059 360.131 71.8008 360.145C71.5536 360.176 71.3278 360.229 71.1232 360.303C70.9215 360.376 70.7596 360.483 70.6374 360.622C70.5181 360.759 70.4585 360.94 70.4585 361.168C70.4585 361.483 70.5749 361.722 70.8079 361.884C71.0408 362.043 71.3377 362.122 71.6985 362.122ZM79.4041 356.455V357.477H75.8288V356.455H79.4041ZM76.7876 354.886H78.0618V361.078C78.0618 361.325 78.0987 361.511 78.1726 361.636C78.2464 361.759 78.3416 361.842 78.4581 361.888C78.5774 361.93 78.7067 361.952 78.8459 361.952C78.9482 361.952 79.0376 361.945 79.1143 361.93C79.1911 361.916 79.2507 361.905 79.2933 361.896L79.5234 362.949C79.4496 362.977 79.3445 363.006 79.2081 363.034C79.0717 363.065 78.9013 363.082 78.6967 363.085C78.3615 363.091 78.049 363.031 77.7592 362.906C77.4695 362.781 77.2351 362.588 77.0561 362.327C76.8771 362.065 76.7876 361.737 76.7876 361.342V354.886ZM84.9599 360.286V356.455H86.2383V363H84.9854V361.866H84.9173C84.7667 362.216 84.5252 362.507 84.1928 362.74C83.8633 362.97 83.4528 363.085 82.9613 363.085C82.5408 363.085 82.1687 362.993 81.8448 362.808C81.5238 362.621 81.271 362.344 81.0863 361.977C80.9045 361.611 80.8136 361.158 80.8136 360.618V356.455H82.0877V360.464C82.0877 360.911 82.2113 361.266 82.4585 361.53C82.7056 361.794 83.0266 361.926 83.4215 361.926C83.6602 361.926 83.8974 361.866 84.1332 361.747C84.3718 361.628 84.5692 361.447 84.7255 361.206C84.8846 360.964 84.9627 360.658 84.9599 360.286ZM92.8551 358.053L91.7003 358.257C91.652 358.109 91.5753 357.969 91.4702 357.835C91.3679 357.702 91.2287 357.592 91.0526 357.507C90.8764 357.422 90.6563 357.379 90.392 357.379C90.0313 357.379 89.7301 357.46 89.4886 357.622C89.2472 357.781 89.1264 357.987 89.1264 358.24C89.1264 358.459 89.2074 358.635 89.3693 358.768C89.5313 358.902 89.7926 359.011 90.1534 359.097L91.1932 359.335C91.7955 359.474 92.2443 359.689 92.5398 359.979C92.8352 360.268 92.983 360.645 92.983 361.108C92.983 361.5 92.8693 361.849 92.642 362.156C92.4176 362.46 92.1037 362.699 91.7003 362.872C91.2997 363.045 90.8352 363.132 90.3068 363.132C89.5739 363.132 88.9759 362.976 88.5128 362.663C88.0497 362.348 87.7656 361.901 87.6605 361.321L88.892 361.134C88.9688 361.455 89.1264 361.697 89.3651 361.862C89.6037 362.024 89.9148 362.105 90.2983 362.105C90.7159 362.105 91.0497 362.018 91.2997 361.845C91.5497 361.669 91.6747 361.455 91.6747 361.202C91.6747 360.997 91.598 360.825 91.4446 360.686C91.294 360.547 91.0625 360.442 90.75 360.371L89.642 360.128C89.0313 359.989 88.5795 359.767 88.2869 359.463C87.9972 359.159 87.8523 358.774 87.8523 358.308C87.8523 357.922 87.9602 357.584 88.1761 357.294C88.392 357.004 88.6903 356.778 89.071 356.616C89.4517 356.452 89.8878 356.369 90.3793 356.369C91.0866 356.369 91.6435 356.523 92.0497 356.83C92.456 357.134 92.7244 357.541 92.8551 358.053Z" fill="#1C4980"/>
<defs>
<clipPath id="clip0_0_863">
<rect width="20" height="20" fill="white" transform="translate(65 29.5)"/>
</clipPath>
</defs>
</svg>
